<?xml version="1.0" encoding="UTF-8"?>
<svg width="99px" height="53px" viewBox="0 0 99 53" version="1.1" xmlns="http://www.w3.org/2000/svg" xmlns:xlink="http://www.w3.org/1999/xlink">
    <title>header</title>
    <g id="headers" stroke="none" stroke-width="1" fill="none" fill-rule="evenodd">
        <g id="tbc-headers" transform="translate(-203.000000, -343.000000)" fill-rule="nonzero">
            <g id="header" transform="translate(203.000000, 343.000000)">
                <path d="M32.416,35.16 L32.416,29.336 L34.72,29.336 L37.76,35.16 L42.592,35.16 L38.784,28.312 C41.216,27.224 42.72,24.888 42.72,21.4 L42.72,20.76 C42.72,15.512 39.68,12.6 35.168,12.6 L28,12.6 L28,35.16 L32.416,35.16 Z M34.624,25.144 L32.416,25.144 L32.416,16.824 L34.624,16.824 C36.608,16.824 38.336,17.592 38.336,20.696 L38.336,21.336 C38.336,24.312 36.544,25.144 34.624,25.144 Z M51.6693333,35.48 C55.9253333,35.48 58.4533333,32.824 58.4533333,29.528 L58.4533333,29.4 L54.2293333,29.4 L54.2293333,29.784 C54.2293333,31.256 53.0773333,32.056 51.6693333,32.056 C50.3253333,32.056 49.0453333,30.968 49.0453333,29.368 L49.0453333,27.416 L58.4533333,27.416 L58.4533333,23.896 C58.4533333,19.48 55.9253333,16.952 51.6693333,16.952 C47.3173333,16.952 44.8213333,19.672 44.8213333,24.056 L44.8213333,28.44 C44.8213333,32.76 47.3173333,35.48 51.6693333,35.48 Z M54.2293333,24.472 L49.0453333,24.472 L49.0453333,23.16 C49.0453333,21.24 50.1653333,20.408 51.6693333,20.408 C53.2373333,20.408 54.2293333,21.208 54.2293333,23.608 L54.2293333,24.472 Z M65.1306667,35.16 L65.1306667,11 L60.9066667,11 L60.9066667,35.16 L65.1306667,35.16 Z M73.152,35.448 C75.808,35.448 77.184,33.784 77.44,33.176 L77.44,35.16 L81.408,35.16 L81.408,17.176 L77.44,17.176 L77.44,19.192 C77.184,18.616 75.808,16.952 73.152,16.952 C69.984,16.952 67.776,18.936 67.776,23.576 L67.776,28.792 C67.776,33.4 69.92,35.448 73.152,35.448 Z M74.624,31.704 C73.056,31.704 72.032,30.712 72.032,28.472 L72.032,23.896 C72.032,21.688 73.056,20.696 74.624,20.696 C76.096,20.696 77.184,21.656 77.184,23.832 L77.184,28.472 C77.184,30.68 76.16,31.704 74.624,31.704 Z M90.6133333,41.304 L98.1333333,17.176 L93.6213333,17.176 L90.4213333,29.144 L87.2213333,17.176 L82.7093333,17.176 L88.2773333,35.128 L86.3253333,41.304 L90.6133333,41.304 Z" id="Relay" fill="#FFFFFF"></path>
                <g id="logo" fill="#09B9B9">
                    <path d="M7.95000015,0 C5.50984495,0 3.5333334,1.97761199 3.5333334,4.41737557 L3.5333334,4.41737557 C3.5333334,6.85572151 5.50984495,8.8333335 7.95000015,8.8333335 L7.95000015,8.8333335 C10.3901554,8.8333335 12.3666669,6.85572151 12.3666669,4.41737557 L12.3666669,4.41737557 C12.3666669,1.97761199 10.3901554,0 7.95000015,0 Z M0,26.4992988 C0,30.8893774 3.55953397,34.4500007 7.95000015,34.4500007 L7.95000015,34.4500007 C12.3404663,34.4500007 15.9000003,30.8893774 15.9000003,26.4992988 L15.9000003,26.4992988 C15.9000003,22.1092202 12.3404663,18.5500003 7.95000015,18.5500003 L7.95000015,18.5500003 C3.55953397,18.5500003 0,22.1092202 0,26.4992988 L0,26.4992988 Z M3.5333334,48.5826255 C3.5333334,51.022389 5.50984495,53.000001 7.95000015,53.000001 L7.95000015,53.000001 C10.3901554,53.000001 12.3666669,51.022389 12.3666669,48.5826255 L12.3666669,48.5826255 C12.3666669,46.1442795 10.3901554,44.1666675 7.95000015,44.1666675 L7.95000015,44.1666675 C5.50984495,44.1666675 3.5333334,46.1442795 3.5333334,48.5826255 L3.5333334,48.5826255 Z" id="Fill-1"></path>
                </g>
            </g>
        </g>
    </g>
</svg>